<svg xmlns="http://www.w3.org/2000/svg" viewBox="0 0 32 32">
  <defs>
    <linearGradient id="g" x1="0%" y1="0%" x2="100%" y2="100%">
      <stop offset="0%" stop-color="#6366f1"/>
      <stop offset="100%" stop-color="#14b8a6"/>
    </linearGradient>
  </defs>
  <rect width="32" height="32" rx="8" fill="url(#g)"/>
  <path d="M16 7a5 5 0 0 0-5 5v2h-1a1 1 0 0 0-1 1v9a2 2 0 0 0 2 2h10a2 2 0 0 0 2-2v-9a1 1 0 0 0-1-1h-1v-2a5 5 0 0 0-5-5zm0 2a3 3 0 0 1 3 3v2h-6v-2a3 3 0 0 1 3-3zm0 9a1.5 1.5 0 0 1 .75 2.8V22a.75.75 0 0 1-1.5 0v-1.2A1.5 1.5 0 0 1 16 18z" fill="white" fill-opacity="0.95"/>
</svg>
